<svg width="26" height="26" viewBox="0 0 26 26" fill="none" xmlns="http://www.w3.org/2000/svg">
<path d="M13.0003 14.0834C14.7954 14.0834 16.2503 15.5383 16.2503 17.3334C16.2503 18.2542 15.8679 19.0841 15.2537 19.6756L13.1845 21.6667H16.2503V23.8334H9.75033V21.9657L13.7511 18.1145C13.9569 17.9162 14.0837 17.64 14.0837 17.3334C14.0837 16.7354 13.5983 16.2501 13.0003 16.2501C12.4023 16.2501 11.917 16.7354 11.917 17.3334H9.75033C9.75033 15.5383 11.2052 14.0834 13.0003 14.0834ZM19.5003 14.0834V18.4167H21.667V14.0834H23.8337V23.8334H21.667V20.5834H17.3337V14.0834H19.5003ZM4.33366 13.0001C4.33366 15.7377 5.60224 18.1784 7.58366 19.7666V22.3839C4.34558 20.5108 2.16699 17.0106 2.16699 13.0001H4.33366ZM13.0003 2.16675C18.6174 2.16675 23.2367 6.44266 23.7795 11.9167H21.5998C21.0668 7.64191 17.4203 4.33341 13.0003 4.33341C10.0212 4.33341 7.39299 5.836 5.83408 8.12508H8.66699V10.2917H2.16699V3.79175H4.33366V6.50008C6.30966 3.86758 9.45674 2.16675 13.0003 2.16675Z" fill="#0568FE"/>
</svg>
