<svg width="58" height="58" viewBox="0 0 58 58" fill="none" xmlns="http://www.w3.org/2000/svg">
<path d="M20.5003 0.833252V6.49992H37.5003V0.833252H43.167V6.49992H54.5003C55.2518 6.49992 55.9724 6.79843 56.5038 7.32978C57.0351 7.86114 57.3337 8.58181 57.3337 9.33325V54.6666C57.3337 55.418 57.0351 56.1387 56.5038 56.6701C55.9724 57.2014 55.2518 57.4999 54.5003 57.4999H3.50033C2.74888 57.4999 2.02821 57.2014 1.49686 56.6701C0.965503 56.1387 0.666992 55.418 0.666992 54.6666V9.33325C0.666992 8.58181 0.965503 7.86114 1.49686 7.32978C2.02821 6.79843 2.74888 6.49992 3.50033 6.49992H14.8337V0.833252H20.5003ZM51.667 26.3333H6.33366V51.8333H51.667V26.3333ZM37.6023 29.5519L41.6087 33.5583L27.5837 47.5833L17.565 37.5646L21.577 33.5583L27.5865 39.5706L37.6052 29.5519H37.6023ZM14.8337 12.1666H6.33366V20.6666H51.667V12.1666H43.167V14.9999H37.5003V12.1666H20.5003V14.9999H14.8337V12.1666Z" fill="#F2F4FC"/>
</svg>
