<svg width="68" height="52" viewBox="0 0 68 52" fill="none" xmlns="http://www.w3.org/2000/svg">
<path d="M53.8333 45.6666H14.1667V48.4999C14.1667 49.2514 13.8682 49.972 13.3368 50.5034C12.8054 51.0347 12.0848 51.3333 11.3333 51.3333H8.5C7.74855 51.3333 7.02788 51.0347 6.49653 50.5034C5.96518 49.972 5.66667 49.2514 5.66667 48.4999V27.2499L2.14483 26.3716C1.53213 26.2181 0.988291 25.8643 0.59969 25.3663C0.211089 24.8684 1.66046e-05 24.2549 0 23.6233L0 21.5833C0 21.2075 0.149256 20.8472 0.414932 20.5815C0.680609 20.3158 1.04094 20.1666 1.41667 20.1666H5.66667L12.6933 3.76725C13.1306 2.74725 13.8577 1.87809 14.7845 1.26763C15.7113 0.657165 16.7969 0.332267 17.9067 0.333254H50.0933C51.2021 0.333377 52.2865 0.658793 53.2122 1.26919C54.1379 1.87959 54.8641 2.74814 55.301 3.76725L62.3333 20.1666H66.5833C66.9591 20.1666 67.3194 20.3158 67.5851 20.5815C67.8507 20.8472 68 21.2075 68 21.5833V23.6233C68 24.2549 67.7889 24.8684 67.4003 25.3663C67.0117 25.8643 66.4679 26.2181 65.8552 26.3716L62.3333 27.2499V48.4999C62.3333 49.2514 62.0348 49.972 61.5035 50.5034C60.9721 51.0347 60.2514 51.3333 59.5 51.3333H56.6667C55.9152 51.3333 55.1945 51.0347 54.6632 50.5034C54.1318 49.972 53.8333 49.2514 53.8333 48.4999V45.6666ZM56.6667 39.9999V25.8333H11.3333V39.9999H56.6667ZM15.5182 20.1666H52.4818C52.9446 20.1663 53.4003 20.0527 53.809 19.8356C54.2177 19.6185 54.567 19.3047 54.8264 18.9215C55.0858 18.5382 55.2474 18.0973 55.297 17.6372C55.3467 17.1771 55.2829 16.7118 55.1112 16.2821L51 5.99992H17L12.8888 16.2821C12.7171 16.7118 12.6533 17.1771 12.703 17.6372C12.7526 18.0973 12.9142 18.5382 13.1736 18.9215C13.433 19.3047 13.7823 19.6185 14.191 19.8356C14.5997 20.0527 15.0554 20.1663 15.5182 20.1666V20.1666ZM14.1667 28.6666C20.7315 28.6666 25.1572 30.8058 27.4437 35.0813C27.5592 35.2971 27.6169 35.5393 27.611 35.7841C27.6051 36.0289 27.5358 36.268 27.41 36.4781C27.2841 36.6881 27.1059 36.862 26.8928 36.9826C26.6798 37.1033 26.439 37.1667 26.1942 37.1666H17C16.2486 37.1666 15.5279 36.8681 14.9965 36.3367C14.4652 35.8054 14.1667 35.0847 14.1667 34.3333V28.6666ZM53.8333 28.6666V34.3333C53.8333 35.0847 53.5348 35.8054 53.0035 36.3367C52.4721 36.8681 51.7514 37.1666 51 37.1666H41.8058C41.5612 37.1662 41.3208 37.1025 41.1081 36.9816C40.8954 36.8607 40.7177 36.6868 40.5921 36.4768C40.4666 36.2669 40.3976 36.028 40.3918 35.7834C40.386 35.5388 40.4437 35.2969 40.5592 35.0813C42.84 30.8029 47.2657 28.6666 53.8333 28.6666Z" fill="#F2F4FC"/>
</svg>
