<svg width="28" height="28" viewBox="0 0 28 28" fill="none" xmlns="http://www.w3.org/2000/svg">
<path d="M14.0003 27.3333C6.63633 27.3333 0.666992 21.364 0.666992 14C0.666992 6.63596 6.63633 0.666626 14.0003 0.666626C21.3643 0.666626 27.3337 6.63596 27.3337 14C27.3337 21.364 21.3643 27.3333 14.0003 27.3333ZM14.0003 24.6666C16.8293 24.6666 19.5424 23.5428 21.5428 21.5424C23.5432 19.542 24.667 16.8289 24.667 14C24.667 11.171 23.5432 8.45788 21.5428 6.45749C19.5424 4.4571 16.8293 3.33329 14.0003 3.33329C11.1713 3.33329 8.45824 4.4571 6.45785 6.45749C4.45747 8.45788 3.33366 11.171 3.33366 14C3.33366 16.8289 4.45747 19.542 6.45785 21.5424C8.45824 23.5428 11.1713 24.6666 14.0003 24.6666V24.6666ZM10.0003 15.3333H8.66699V12.6666H10.0003V11.3333C9.99971 10.2496 10.3762 9.19957 11.0653 8.36322C11.7544 7.52687 12.713 6.95639 13.7767 6.74966C14.8405 6.54294 15.943 6.71285 16.8952 7.23025C17.8473 7.74766 18.5897 8.58029 18.995 9.58529L16.347 10.2466C16.1132 9.88292 15.7678 9.60483 15.3626 9.45406C14.9574 9.30329 14.5143 9.28797 14.0996 9.41041C13.685 9.53285 13.3212 9.78644 13.0629 10.1331C12.8046 10.4798 12.6657 10.901 12.667 11.3333V12.6666H16.667V15.3333H12.667V18H19.3337V20.6666H8.66699V18H10.0003V15.3333Z" fill="#3083FF"/>
</svg>
