<svg width="52" height="63" viewBox="0 0 52 63" fill="none" xmlns="http://www.w3.org/2000/svg">
<path d="M40.025 40.1918C42.7986 37.4179 44.6873 33.884 45.4524 30.0367C46.2175 26.1895 45.8246 22.2018 44.3234 18.5778C42.8222 14.9539 40.2801 11.8565 37.0186 9.67725C33.7571 7.49802 29.9226 6.33487 26 6.33487C22.0774 6.33487 18.2429 7.49802 14.9814 9.67725C11.7199 11.8565 9.17779 14.9539 7.6766 18.5778C6.1754 22.2018 5.78251 26.1895 6.54762 30.0367C7.31273 33.884 9.20147 37.4179 11.975 40.1918L26 54.2168L40.025 40.1918ZM26 62.2294L7.96868 44.1981C4.40247 40.6319 1.97386 36.0882 0.989964 31.1417C0.00606612 26.1952 0.511069 21.068 2.44111 16.4085C4.37116 11.749 7.63956 7.76646 11.833 4.9645C16.0265 2.16253 20.9566 0.666992 26 0.666992C31.0434 0.666992 35.9736 2.16253 40.167 4.9645C44.3605 7.76646 47.6289 11.749 49.5589 16.4085C51.489 21.068 51.994 26.1952 51.0101 31.1417C50.0262 36.0882 47.5976 40.6319 44.0313 44.1981L26 62.2294ZM28.8333 26.1668H40.1667V31.8334H23.1667V12.0001H28.8333V26.1668Z" fill="#F2F4FC"/>
</svg>
