<svg width="255" height="80" viewBox="0 0 255 80" fill="none" xmlns="http://www.w3.org/2000/svg">
<path d="M75.4161 54.9074C73.0694 54.9074 71.0534 54.4381 69.3681 53.4994C67.7041 52.5394 66.4241 51.1954 65.5281 49.4674C64.6321 47.7181 64.1841 45.6594 64.1841 43.2914C64.1841 41.5207 64.4401 39.9314 64.9521 38.5234C65.4641 37.0941 66.2001 35.8781 67.1601 34.8754C68.1201 33.8514 69.2934 33.0727 70.6801 32.5394C72.0881 31.9847 73.6667 31.7074 75.4161 31.7074C76.5894 31.7074 77.7414 31.8567 78.8721 32.1554C80.0027 32.4541 80.9947 32.8807 81.8481 33.4354C82.2961 33.7127 82.5947 34.0541 82.7441 34.4594C82.8934 34.8434 82.9254 35.2274 82.8401 35.6114C82.7547 35.9741 82.5734 36.2834 82.2961 36.5394C82.0401 36.7954 81.7094 36.9447 81.3041 36.9874C80.9201 37.0087 80.4934 36.8701 80.0241 36.5714C79.3627 36.1447 78.6481 35.8354 77.8801 35.6434C77.1121 35.4514 76.3334 35.3554 75.5441 35.3554C74.0294 35.3554 72.7494 35.6647 71.7041 36.2834C70.6587 36.9021 69.8694 37.7981 69.3361 38.9714C68.8027 40.1447 68.5361 41.5847 68.5361 43.2914C68.5361 44.9767 68.8027 46.4167 69.3361 47.6114C69.8694 48.8061 70.6587 49.7127 71.7041 50.3314C72.7494 50.9501 74.0294 51.2594 75.5441 51.2594C76.3547 51.2594 77.1547 51.1634 77.9441 50.9714C78.7334 50.7581 79.4801 50.4381 80.1841 50.0114C80.6534 49.7341 81.0694 49.6167 81.4321 49.6594C81.8161 49.6807 82.1361 49.8087 82.3921 50.0434C82.6481 50.2781 82.8187 50.5767 82.9041 50.9394C82.9894 51.2807 82.9681 51.6434 82.8401 52.0274C82.7121 52.3901 82.4561 52.7101 82.0721 52.9874C81.2187 53.6061 80.1947 54.0861 79.0001 54.4274C77.8267 54.7474 76.6321 54.9074 75.4161 54.9074ZM86.4253 54.8434C85.9133 54.8434 85.4973 54.7261 85.1773 54.4914C84.8786 54.2567 84.6973 53.9474 84.6333 53.5634C84.5693 53.1581 84.644 52.7101 84.8573 52.2194L93.3053 33.4994C93.5826 32.8807 93.9133 32.4434 94.2973 32.1874C94.7026 31.9101 95.1613 31.7714 95.6733 31.7714C96.164 31.7714 96.6013 31.9101 96.9853 32.1874C97.3906 32.4434 97.732 32.8807 98.0093 33.4994L106.489 52.2194C106.724 52.7101 106.809 53.1581 106.745 53.5634C106.681 53.9687 106.5 54.2887 106.201 54.5234C105.903 54.7367 105.508 54.8434 105.017 54.8434C104.42 54.8434 103.951 54.7047 103.609 54.4274C103.289 54.1287 103.001 53.6807 102.745 53.0834L100.665 48.2514L102.393 49.3714H88.8893L90.6173 48.2514L88.5693 53.0834C88.292 53.7021 88.004 54.1501 87.7053 54.4274C87.4066 54.7047 86.98 54.8434 86.4253 54.8434ZM95.6093 36.4754L91.1293 47.1314L90.2973 46.1074H100.985L100.185 47.1314L95.6733 36.4754H95.6093ZM112.062 54.8434C111.4 54.8434 110.888 54.6621 110.526 54.2994C110.184 53.9154 110.014 53.3927 110.014 52.7314V34.1074C110.014 33.4247 110.195 32.9127 110.558 32.5714C110.92 32.2087 111.432 32.0274 112.094 32.0274H119.806C122.28 32.0274 124.19 32.6247 125.534 33.8194C126.878 34.9927 127.55 36.6461 127.55 38.7794C127.55 40.1661 127.24 41.3607 126.622 42.3634C126.024 43.3661 125.15 44.1341 123.998 44.6674C122.846 45.2007 121.448 45.4674 119.806 45.4674L120.094 44.9874H121.15C122.024 44.9874 122.782 45.2007 123.422 45.6274C124.083 46.0541 124.659 46.7261 125.15 47.6434L127.55 52.0914C127.806 52.5394 127.923 52.9767 127.902 53.4034C127.88 53.8301 127.72 54.1821 127.422 54.4594C127.123 54.7154 126.686 54.8434 126.11 54.8434C125.534 54.8434 125.064 54.7261 124.702 54.4914C124.339 54.2354 124.019 53.8514 123.742 53.3394L120.51 47.3874C120.126 46.6621 119.667 46.1821 119.134 45.9474C118.622 45.6914 117.96 45.5634 117.15 45.5634H114.11V52.7314C114.11 53.3927 113.939 53.9154 113.598 54.2994C113.256 54.6621 112.744 54.8434 112.062 54.8434ZM114.11 42.5234H119.102C120.574 42.5234 121.683 42.2247 122.43 41.6274C123.198 41.0087 123.582 40.0914 123.582 38.8754C123.582 37.6807 123.198 36.7847 122.43 36.1874C121.683 35.5687 120.574 35.2594 119.102 35.2594H114.11V42.5234ZM133.999 54.8434C133.338 54.8434 132.826 54.6621 132.463 54.2994C132.122 53.9154 131.951 53.3927 131.951 52.7314V34.1074C131.951 33.4247 132.133 32.9127 132.495 32.5714C132.858 32.2087 133.37 32.0274 134.031 32.0274H141.743C144.218 32.0274 146.127 32.6247 147.471 33.8194C148.815 34.9927 149.487 36.6461 149.487 38.7794C149.487 40.1661 149.178 41.3607 148.559 42.3634C147.962 43.3661 147.087 44.1341 145.935 44.6674C144.783 45.2007 143.386 45.4674 141.743 45.4674L142.031 44.9874H143.087C143.962 44.9874 144.719 45.2007 145.359 45.6274C146.021 46.0541 146.597 46.7261 147.087 47.6434L149.487 52.0914C149.743 52.5394 149.861 52.9767 149.839 53.4034C149.818 53.8301 149.658 54.1821 149.359 54.4594C149.061 54.7154 148.623 54.8434 148.047 54.8434C147.471 54.8434 147.002 54.7261 146.639 54.4914C146.277 54.2354 145.957 53.8514 145.679 53.3394L142.447 47.3874C142.063 46.6621 141.605 46.1821 141.071 45.9474C140.559 45.6914 139.898 45.5634 139.087 45.5634H136.047V52.7314C136.047 53.3927 135.877 53.9154 135.535 54.2994C135.194 54.6621 134.682 54.8434 133.999 54.8434ZM136.047 42.5234H141.039C142.511 42.5234 143.621 42.2247 144.367 41.6274C145.135 41.0087 145.519 40.0914 145.519 38.8754C145.519 37.6807 145.135 36.7847 144.367 36.1874C143.621 35.5687 142.511 35.2594 141.039 35.2594H136.047V42.5234ZM156.065 54.5874C155.361 54.5874 154.817 54.4061 154.433 54.0434C154.07 53.6594 153.889 53.1154 153.889 52.4114V34.2034C153.889 33.4994 154.07 32.9661 154.433 32.6034C154.817 32.2194 155.361 32.0274 156.065 32.0274H167.489C168.022 32.0274 168.427 32.1661 168.705 32.4434C169.003 32.7207 169.153 33.1154 169.153 33.6274C169.153 34.1607 169.003 34.5767 168.705 34.8754C168.427 35.1527 168.022 35.2914 167.489 35.2914H157.825V41.4994H166.785C167.339 41.4994 167.755 41.6381 168.033 41.9154C168.31 42.1927 168.449 42.5981 168.449 43.1314C168.449 43.6647 168.31 44.0701 168.033 44.3474C167.755 44.6247 167.339 44.7634 166.785 44.7634H157.825V51.3234H167.489C168.022 51.3234 168.427 51.4621 168.705 51.7394C169.003 52.0167 169.153 52.4221 169.153 52.9554C169.153 53.4887 169.003 53.8941 168.705 54.1714C168.427 54.4487 168.022 54.5874 167.489 54.5874H156.065ZM174.903 54.8434C174.284 54.8434 173.804 54.6727 173.463 54.3314C173.143 53.9901 172.983 53.4994 172.983 52.8594V33.8194C172.983 33.1581 173.143 32.6567 173.463 32.3154C173.804 31.9527 174.241 31.7714 174.775 31.7714C175.265 31.7714 175.628 31.8674 175.863 32.0594C176.119 32.2301 176.417 32.5287 176.759 32.9554L189.015 48.8594H188.183V33.7234C188.183 33.1047 188.343 32.6247 188.663 32.2834C189.004 31.9421 189.484 31.7714 190.103 31.7714C190.721 31.7714 191.191 31.9421 191.511 32.2834C191.831 32.6247 191.991 33.1047 191.991 33.7234V52.9234C191.991 53.5207 191.841 53.9901 191.543 54.3314C191.244 54.6727 190.839 54.8434 190.327 54.8434C189.836 54.8434 189.441 54.7474 189.143 54.5554C188.865 54.3634 188.556 54.0541 188.215 53.6274L175.991 37.7234H176.791V52.8594C176.791 53.4994 176.631 53.9901 176.311 54.3314C175.991 54.6727 175.521 54.8434 174.903 54.8434ZM204.408 54.8434C203.747 54.8434 203.235 54.6621 202.872 54.2994C202.531 53.9154 202.36 53.3927 202.36 52.7314V35.4514H196.12C195.565 35.4514 195.128 35.3021 194.808 35.0034C194.509 34.6834 194.36 34.2567 194.36 33.7234C194.36 33.1687 194.509 32.7527 194.808 32.4754C195.128 32.1767 195.565 32.0274 196.12 32.0274H212.696C213.251 32.0274 213.677 32.1767 213.976 32.4754C214.296 32.7527 214.456 33.1687 214.456 33.7234C214.456 34.2567 214.296 34.6834 213.976 35.0034C213.677 35.3021 213.251 35.4514 212.696 35.4514H206.456V52.7314C206.456 53.3927 206.285 53.9154 205.944 54.2994C205.603 54.6621 205.091 54.8434 204.408 54.8434ZM214.519 54.8434C214.007 54.8434 213.591 54.7261 213.271 54.4914C212.972 54.2567 212.791 53.9474 212.727 53.5634C212.663 53.1581 212.738 52.7101 212.951 52.2194L221.399 33.4994C221.676 32.8807 222.007 32.4434 222.391 32.1874C222.796 31.9101 223.255 31.7714 223.767 31.7714C224.258 31.7714 224.695 31.9101 225.079 32.1874C225.484 32.4434 225.826 32.8807 226.103 33.4994L234.583 52.2194C234.818 52.7101 234.903 53.1581 234.839 53.5634C234.775 53.9687 234.594 54.2887 234.295 54.5234C233.996 54.7367 233.602 54.8434 233.111 54.8434C232.514 54.8434 232.044 54.7047 231.703 54.4274C231.383 54.1287 231.095 53.6807 230.839 53.0834L228.759 48.2514L230.487 49.3714H216.983L218.711 48.2514L216.663 53.0834C216.386 53.7021 216.098 54.1501 215.799 54.4274C215.5 54.7047 215.074 54.8434 214.519 54.8434ZM223.703 36.4754L219.223 47.1314L218.391 46.1074H229.079L228.279 47.1314L223.767 36.4754H223.703ZM240.188 54.5874C239.526 54.5874 239.014 54.4061 238.652 54.0434C238.289 53.6594 238.108 53.1367 238.108 52.4754V34.0114C238.108 33.3287 238.278 32.8167 238.62 32.4754C238.982 32.1127 239.494 31.9314 240.156 31.9314C240.817 31.9314 241.318 32.1127 241.66 32.4754C242.022 32.8167 242.204 33.3287 242.204 34.0114V51.0994H251.484C252.06 51.0994 252.497 51.2487 252.796 51.5474C253.116 51.8461 253.276 52.2727 253.276 52.8274C253.276 53.3821 253.116 53.8194 252.796 54.1394C252.497 54.4381 252.06 54.5874 251.484 54.5874H240.188Z" fill="white"/>
<path d="M51.0441 19.845C51.0441 25.1082 48.9454 30.1558 45.2098 33.8775C41.4742 37.5991 36.4076 39.6899 31.1246 39.6899C25.8416 39.6899 20.775 37.5991 17.0394 33.8775C13.3037 30.1558 11.2051 25.1082 11.2051 19.845L31.1246 19.845H51.0441Z" fill="white"/>
<path d="M11.516 36.5892C14.5702 36.5892 17.4993 37.7979 19.659 39.9495C21.8186 42.1011 23.0319 45.0192 23.0319 48.062C23.0319 51.1048 21.8186 54.023 19.659 56.1746C17.4993 58.3262 14.5702 59.5349 11.516 59.5349L11.516 48.062L11.516 36.5892Z" fill="white"/>
<path d="M31.1239 60.155C31.1239 57.549 31.6391 54.9684 32.6402 52.5607C33.6412 50.153 35.1085 47.9653 36.9582 46.1225C38.8079 44.2798 41.0038 42.818 43.4205 41.8207C45.8373 40.8234 48.4275 40.3101 51.0434 40.3101L51.0434 60.155L31.1239 60.155Z" fill="white"/>
</svg>
